<svg xmlns="http://www.w3.org/2000/svg" viewBox="0 0 91.26 106.57"><defs><style>.cls-1{fill:#f9f9f9;}.cls-2{fill:#663206;}</style></defs><g id="Layer_2" data-name="Layer 2"><g id="Layer_1-2" data-name="Layer 1"><path class="cls-1" d="M83.35,106.57H7.82c-5.94,0-7.14-4.15-7.54-7.27C-.55,92.7-.29,83.57,11.5,80.42c5.27-1.41,8.14-4.89,9.58-11.64a181,181,0,0,1,6.56-21.72c1.07-3.08.85-3.64-1.86-4.66A44.31,44.31,0,0,1,14.5,35.91a14,14,0,0,1-4.44-7.18,7.35,7.35,0,0,1,2.32-6.91A7.79,7.79,0,0,1,17,20.65a18.6,18.6,0,0,1,2.26.14,7.23,7.23,0,0,1,2.71,1l.18-2c.32-3.51.61-6.83,1-10.12C23.9,3.36,27.32.23,33.58.14S45,0,49.93,0q3.36,0,6.7,0C63.69.09,67.51,3.84,68,11.15c.2,3,.43,6.06.67,9.23l.13,1.67.13-.08a10.18,10.18,0,0,1,5.51-2,6.37,6.37,0,0,1,5.16,2.75c2.93,3.78,2.23,8.61-1.71,11.73a71.67,71.67,0,0,1-13.52,8.21c-1.89.92-1.85,1.06-1.4,2.49,1.18,3.82,2.34,7.72,3.47,11.48,1.72,5.79,3.51,11.78,5.41,17.6.39,1.17,1.57,2.55,3.51,4.1a16.06,16.06,0,0,0,3.41,1.83c.68.29,1.35.59,2,.91,10.35,5.23,11.3,7,10.08,18.63-.46,4.5-3,6.88-7.49,6.88ZM64.27,85.35c-1.41-2.31-2.73-3.43-5.36-3.43H58.7c-4.6.1-9.1.19-13.64.19-4.22,0-8-.08-11.46-.25H33A6.42,6.42,0,0,0,27,85.35ZM26.8,29.26A22,22,0,0,0,45.6,40.61h.14c7.73-.06,14.91-4.73,18.69-11.67a67.85,67.85,0,0,1-19.49,3A63.16,63.16,0,0,1,26.8,29.26Z"/><path class="cls-2" d="M83.35,105H7.82c-3.65,0-5.43-1.75-5.95-5.87C.66,89.43,3.75,84.15,11.91,82c5.86-1.57,9.17-5.53,10.73-12.86a180.67,180.67,0,0,1,6.51-21.53c1.2-3.43,1.08-5.21-2.81-6.68a42.62,42.62,0,0,1-10.86-6.26A12.4,12.4,0,0,1,11.6,28.3a5.77,5.77,0,0,1,1.71-5.17A6.33,6.33,0,0,1,17,22.25a17.53,17.53,0,0,1,2.07.13,7.82,7.82,0,0,1,3,1.33l1.27.74c.15-1.56.28-3.05.41-4.5.32-3.5.62-6.8,1-10.07.67-5.55,3.4-8.06,8.87-8.14l3.3,0c2.23,0,4.14,0,5.9.07,1.51,0,2.9.05,4.29.05,2.28,0,4.22-.07,6.31-.22.31,0,.82-.06,1.5-.06s1.17,0,1.75.08l.27,0c1.5.13,4.63.42,6.57,2.18,1.73,1.58,2.68,4,2.91,7.42.2,3,.43,6.07.67,9.24l.29,3.89.9-.37a8,8,0,0,0,1.53-.71,8.74,8.74,0,0,1,4.64-1.75,4.84,4.84,0,0,1,3.89,2.13c2.76,3.55,1.19,7.41-1.43,9.5a70.49,70.49,0,0,1-13.23,8c-2.49,1.21-2.94,2.11-2.23,4.4,1.18,3.82,2.34,7.71,3.46,11.47,1.73,5.8,3.52,11.79,5.43,17.63.5,1.5,1.81,3.09,4,4.86a16.65,16.65,0,0,0,3.77,2c.65.28,1.3.57,1.92.88,9.75,4.93,10.35,6,9.21,17-.38,3.67-2.31,5.45-5.9,5.45ZM67,87c-2-3.72-3.59-6.62-8.09-6.62h-.25c-4.58.1-9.08.19-13.6.19-4.19,0-7.91-.08-11.39-.24-.22,0-.43,0-.64,0-4.51,0-6.68,2.44-8.75,6.69ZM23.57,26.85a23.46,23.46,0,0,0,22,15.36h.15c9.86-.07,18.89-6.59,21.77-15.6A70,70,0,0,1,45,30.52,65.79,65.79,0,0,1,23.57,26.85Z"/></g></g></svg>